<?xml version="1.0" encoding="utf-8"?>
<!-- Uploaded to: SVG Repo, www.svgrepo.com, Generator: SVG Repo Mixer Tools -->
<svg width="800px" height="800px" viewBox="0 0 1024 1024" class="icon"  version="1.1" xmlns="http://www.w3.org/2000/svg"><path d="M843.2 876.7H180.8c-13.5 0-24.5-11-24.5-24.5V501.7h711.3v350.4c0.1 13.6-10.9 24.6-24.4 24.6z" fill="#68A240" /><path d="M842 882.4H182c-17.3 0-31.4-14.1-31.4-31.4V496h722.9v355c-0.1 17.3-14.2 31.4-31.5 31.4zM162.1 507.5V851c0 11 8.9 19.9 19.9 19.9h660c11 0 19.9-8.9 19.9-19.9V507.5H162.1z" fill="#333336" /><path d="M485.7 835.9H208c-6.2 0-11.2-5-11.2-11.2V521.8H497v302.8c0 6.2-5 11.3-11.3 11.3z" fill="#68A240" /><path d="M485.2 841.6H208.5c-9.7 0-17.5-7.9-17.5-17.5V516h311.8v308.1c0 9.7-7.9 17.5-17.6 17.5zM202.5 527.5v296.6c0 3.3 2.7 6 6 6h276.7c3.3 0 6-2.7 6-6V527.5H202.5z" fill="#333336" /><path d="M813.7 835.9H535.9c-6.2 0-11.2-5-11.2-11.2V521.8H825v302.8c-0.1 6.2-5.1 11.3-11.3 11.3z" fill="#68A240" /><path d="M813.2 841.6H536.5c-9.7 0-17.5-7.9-17.5-17.5V516h311.8v308.1c-0.1 9.7-8 17.5-17.6 17.5zM530.5 527.5v296.6c0 3.3 2.7 6 6 6h276.7c3.3 0 6-2.7 6-6V527.5H530.5z" fill="#333336" /><path d="M806.2 589.5H217.8c-34 0-61.5-27.5-61.5-61.5V346.5c0-4.8 3.9-8.7 8.7-8.7h693.8c4.8 0 8.7 3.9 8.7 8.7V528c0.2 34-27.4 61.5-61.3 61.5z" fill="#FFD632" /><path d="M803.3 595.3H220.7c-38.7 0-70.1-31.5-70.1-70.1V346.9c0-8.2 6.7-14.9 14.9-14.9h693c8.2 0 14.9 6.7 14.9 14.9v178.2c0 38.7-31.4 70.2-70.1 70.2zM165.5 343.5c-1.9 0-3.4 1.5-3.4 3.4v178.2c0 32.3 26.3 58.6 58.6 58.6h582.6c32.3 0 58.6-26.3 58.6-58.6V346.9c0-1.9-1.5-3.4-3.4-3.4h-693z" fill="#333336" /><path d="M397.3 675H296.4c-0.8 0-1.5-0.7-1.5-1.5v-131c0-0.8 0.7-1.5 1.5-1.5h100.9c0.8 0 1.5 0.7 1.5 1.5v131c0 0.8-0.6 1.5-1.5 1.5z" fill="#D5D9CF" /><path d="M397.3 680.7H296.5c-4 0-7.3-3.3-7.3-7.3V542.6c0-4 3.3-7.3 7.3-7.3h100.8c4 0 7.3 3.3 7.3 7.3v130.8c0 4.1-3.3 7.3-7.3 7.3z m-96.6-11.5h92.4V546.8h-92.4v122.4z" fill="#333336" /><path d="M402.5 606.5H291.2c-5 0-9-4-9-9v-9.7c0-5 4-9 9-9h111.3c5 0 9 4 9 9v9.7c0 4.9-4 9-9 9z" fill="#D8A128" /><path d="M402.1 612.2H291.6c-8.4 0-15.2-6.8-15.2-15.2v-8.9c0-8.4 6.8-15.2 15.2-15.2h110.5c8.4 0 15.2 6.8 15.2 15.2v8.9c0 8.4-6.8 15.2-15.2 15.2z m-110.5-27.7c-2 0-3.7 1.6-3.7 3.7v8.9c0 2 1.6 3.7 3.7 3.7h110.5c2 0 3.7-1.6 3.7-3.7v-8.9c0-2-1.6-3.7-3.7-3.7H291.6zM346.9 654c-3.2 0-5.8-2.6-5.8-5.8v-15.6c0-3.2 2.6-5.8 5.8-5.8 3.2 0 5.8 2.6 5.8 5.8v15.6c-0.1 3.2-2.7 5.8-5.8 5.8z" fill="#333336" /><path d="M723.7 675H622.8c-0.8 0-1.5-0.7-1.5-1.5v-131c0-0.8 0.7-1.5 1.5-1.5h100.9c0.8 0 1.5 0.7 1.5 1.5v131c0 0.8-0.6 1.5-1.5 1.5z" fill="#D5D9CF" /><path d="M723.7 680.7H622.9c-4 0-7.3-3.3-7.3-7.3V542.6c0-4 3.3-7.3 7.3-7.3h100.8c4 0 7.3 3.3 7.3 7.3v130.8c0 4.1-3.3 7.3-7.3 7.3z m-96.6-11.5h92.4V546.8h-92.4v122.4z" fill="#333336" /><path d="M729 606.5H617.6c-5 0-9-4-9-9v-9.7c0-5 4-9 9-9H729c5 0 9 4 9 9v9.7c0 4.9-4.1 9-9 9z" fill="#D8A128" /><path d="M728.5 612.2H618c-8.4 0-15.2-6.8-15.2-15.2v-8.9c0-8.4 6.8-15.2 15.2-15.2h110.5c8.4 0 15.2 6.8 15.2 15.2v8.9c0 8.4-6.8 15.2-15.2 15.2zM618 584.5c-2 0-3.7 1.6-3.7 3.7v8.9c0 2 1.6 3.7 3.7 3.7h110.5c2 0 3.7-1.6 3.7-3.7v-8.9c0-2-1.6-3.7-3.7-3.7H618z" fill="#333336" /><path d="M673.3 654c-3.2 0-5.8-2.6-5.8-5.8v-15.6c0-3.2 2.6-5.8 5.8-5.8 3.2 0 5.8 2.6 5.8 5.8v15.6c-0.1 3.2-2.6 5.8-5.8 5.8z" fill="#333336" /><path d="M664.3 273.2c10.9-7.9 14-22.7 7.2-34.3-21.9-37.4-76-111.6-161.5-111.6-92.6 0-143.4 74.7-163 112-6 11.5-2.6 25.7 7.9 33.3l0.2 0.1c12.8 9.3 30.8 5.1 38.4-8.8 18.9-34.6 58.2-90.1 116.5-90.1 56.6 0 97 56.4 116.4 91 7.6 13.6 25.3 17.5 37.9 8.4z" fill="#FFD632" /><path d="M649.1 283.9c-2.3 0-4.6-0.2-6.8-0.7-8.8-1.9-16.4-7.6-20.9-15.5-18.5-32.9-57.5-88.1-111.4-88.1-55.7 0-93.8 54.6-111.5 87.1-4.4 8.1-12.1 13.9-21.1 15.9-8.9 2-18.3 0.1-25.7-5.2l-0.2-0.1c-12.8-9.2-16.9-26.7-9.6-40.7 10.3-19.6 28.2-47.9 55.4-71.6 33-28.8 70.9-43.4 112.7-43.4 38.7 0 75.1 14.5 108.4 43.2 27.4 23.6 46.7 51.8 58.1 71.3 8.3 14.2 4.5 32.2-8.8 41.8-5.5 3.9-12 6-18.6 6zM510 168.1c59.8 0 101.7 58.9 121.4 93.9 2.8 5 7.7 8.6 13.3 9.9 5.6 1.2 11.5 0 16.2-3.4 8.5-6.1 10.9-17.6 5.6-26.7-11-18.7-29.5-45.8-55.7-68.4-31.1-26.8-65-40.4-100.9-40.4-38.9 0-74.3 13.6-105.1 40.6-25.8 22.5-42.9 49.6-52.8 68.3-4.7 8.9-2 20.1 6.2 26l0.2 0.1c4.7 3.4 10.7 4.6 16.4 3.4 5.7-1.3 10.7-5 13.5-10.2 19.1-34.8 60-93.1 121.7-93.1z" fill="#333336" /><path d="M376.1 247.6L336 313" fill="#FFD632" /><path d="M331.041 309.941l40.114-65.371 9.802 6.014-40.114 65.372z" fill="#333336" /><path d="M644.2 247.6l40.1 65.4" fill="#FFD632" /><path d="M639.253 250.588l9.801-6.014 40.115 65.371-9.802 6.014z" fill="#333336" /><path d="M343 336.2h-67.8c-6.1 0-11-4.9-11-11v-11.9c0-6.1 4.9-11 11-11H343c6.1 0 11 4.9 11 11v11.9c0 6.1-5 11-11 11z" fill="#D5D9CF" /><path d="M342.4 342h-66.8c-9.5 0-17.3-7.8-17.3-17.3v-10.9c0-9.5 7.8-17.3 17.3-17.3h66.8c9.5 0 17.3 7.8 17.3 17.3v10.9c0 9.5-7.7 17.3-17.3 17.3z m-66.7-33.9c-3.2 0-5.8 2.6-5.8 5.8v10.9c0 3.2 2.6 5.8 5.8 5.8h66.8c3.2 0 5.8-2.6 5.8-5.8v-10.9c0-3.2-2.6-5.8-5.8-5.8h-66.8z" fill="#333336" /><path d="M745 336.2h-67.8c-6.1 0-11-4.9-11-11v-11.9c0-6.1 4.9-11 11-11H745c6.1 0 11 4.9 11 11v11.9c0 6.1-4.9 11-11 11z" fill="#D5D9CF" /><path d="M744.4 342h-66.8c-9.5 0-17.3-7.8-17.3-17.3v-10.9c0-9.5 7.8-17.3 17.3-17.3h66.8c9.5 0 17.3 7.8 17.3 17.3v10.9c0 9.5-7.7 17.3-17.3 17.3z m-66.7-33.9c-3.2 0-5.8 2.6-5.8 5.8v10.9c0 3.2 2.6 5.8 5.8 5.8h66.8c3.2 0 5.8-2.6 5.8-5.8v-10.9c0-3.2-2.6-5.8-5.8-5.8h-66.8z" fill="#333336" /></svg>