<?xml version="1.0" encoding="utf-8"?>
<!-- Uploaded to: SVG Repo, www.svgrepo.com, Generator: SVG Repo Mixer Tools -->
<svg width="800px" height="800px" viewBox="0 0 1024 1024" class="icon"  version="1.1" xmlns="http://www.w3.org/2000/svg"><path d="M993.763 493.538v35c0 13.331-6.04 26.663-18.135 37.137-140.149 121.422-280.35 242.794-420.49 364.219-11.813 10.237-25.813 15.501-42.454 15.501v-35c16.644 0 30.641-5.264 42.454-15.501 140.142-121.425 280.336-242.802 420.49-364.219 12.095-10.474 18.135-23.801 18.135-37.137z" fill="#8EC441" /><path d="M30.239 528.366v-3.5-1.75-3.5-3.5-1.75-3.5-3.5-1.75-3.5-3.5-1.75-3.5c0 14.708 6.701 29.313 19.037 40.02C187.725 653.45 326.325 773.382 464.837 893.403c13.002 11.262 28.74 16.468 47.853 16.996v35c-19.108-0.528-34.851-5.735-47.853-16.996C326.325 808.382 187.725 688.45 49.276 568.386c-12.337-10.705-19.037-25.312-19.037-40.02z" fill="#8EC441" /><path d="M510.786 76.601c16.263 0 32.546 5.362 44.946 16.097 139.949 121.188 279.9 242.376 419.818 363.584 24.241 20.995 24.295 53.414 0.079 74.396C835.48 652.1 695.28 773.476 555.141 894.897c-11.814 10.238-25.813 15.502-42.451 15.502-19.109-0.528-34.853-5.734-47.854-16.994C326.324 773.382 187.724 653.45 49.275 533.386c-19.581-16.987-24.96-43.81-11.895-65.252 3.919-6.437 8.669-11.829 14.465-16.85 138.109-119.55 276.179-239.132 414.262-358.717 12.296-10.64 28.478-15.966 44.679-15.966z" fill="#A6CD48" /><path d="M370.331 358.014v-0.024-0.025-0.025-0.025-0.025-0.023-0.021-0.02-1.938-2.057-2.135-2.174-2.174-2.135-2.058-1.938l0.146-0.005v16.8c-0.049-0.001-0.099 0-0.146 0.002z" fill="#6A9C4F" /><path d="M370.476 341.209v16.8a21.01 21.01 0 0 0-2.264 0.18v-16.8c0.741-0.099 1.495-0.16 2.264-0.18" fill="#6A9C4F" /><path d="M357.188 363.017c-0.369 0.271-0.741 0.553-1.116 0.847v-16.8c0.375-0.294 0.747-0.576 1.116-0.847V363.017z" fill="#6A9C4F" /><path d="M359.061 344.93v16.8c-0.6 0.382-1.2 0.797-1.809 1.238a39.67 39.67 0 0 0-1.183 0.896v-16.8a37.611 37.611 0 0 1 2.992-2.134" fill="#6A9C4F" /><path d="M471.965 406.157v16.8c0 8.47-3.513 16.979-10.45 23.819-10.321 10.187-21.712 19.563-32.792 29.156-1.304 1.129-2.008 2.013-2.008 3.123v-16.8c0-1.109 0.703-1.993 2.008-3.123 11.08-9.593 22.471-18.97 32.792-29.157 6.937-6.837 10.45-15.348 10.45-23.818z" fill="#6A9C4F" /><path d="M471.965 406.157v16.8c0 0.626-0.021 1.255-0.058 1.884v-16.8c0.038-0.629 0.058-1.258 0.058-1.884M471.907 408.041v16.8c-0.42 6.815-3.112 13.576-8.028 19.387v-16.8c4.918-5.811 7.608-12.572 8.028-19.387" fill="#6A9C4F" /><path d="M463.879 427.428v16.8a38.019 38.019 0 0 1-2.364 2.549c-10.321 10.187-21.712 19.563-32.792 29.156-0.467 0.406-0.856 0.779-1.166 1.143v-16.8c0.31-0.362 0.7-0.735 1.166-1.143 11.08-9.593 22.471-18.97 32.792-29.157a38.498 38.498 0 0 0 2.364-2.548M427.557 460.274v16.8c-0.51 0.603-0.796 1.177-0.837 1.824v-16.801c0.04-0.645 0.327-1.22 0.837-1.823M426.72 462.098v16.801c-0.002 0.053-0.004 0.104-0.004 0.156v-16.8c0-0.051 0-0.103 0.004-0.157" fill="#6A9C4F" /><path d="M523.553 323.474v-16.8c0 0.531 0.038 1.08 0.115 1.646 0.727 5.351 5.029 8.311 13.305 10.267 14.497 3.413 29.292 6.276 43.215 11.025 39.887 13.619 71.98 36.226 97.021 66.293 19.131 22.977 31.38 48.544 37.366 76.383 1.622 7.561 5.924 11.182 13.224 11.592 0.279 0.018 0.554 0.023 0.827 0.023 5.584 0 9.796-3.247 12.771-9.862v16.8c-2.976 6.614-7.188 9.861-12.771 9.861-0.273 0-0.548-0.007-0.827-0.023-7.3-0.41-11.602-4.031-13.224-11.592-5.986-27.838-18.235-53.406-37.366-76.383-25.039-30.065-57.134-52.674-97.021-66.293-13.923-4.749-28.718-7.613-43.215-11.025-8.274-1.956-12.578-4.916-13.305-10.266a12.2 12.2 0 0 1-0.115-1.646z" fill="#86BB3F" /><path d="M741.395 474.042v16.8c-0.951 2.119-2.031 3.893-3.243 5.325v-16.8c1.21-1.432 2.291-3.204 3.243-5.325M738.15 479.367v16.8c-0.935 1.104-1.949 2.007-3.042 2.707v-16.8c1.094-0.701 2.109-1.602 3.042-2.707M735.108 482.073v16.8c-0.705 0.451-1.445 0.819-2.219 1.103v-16.8a11.389 11.389 0 0 0 2.219-1.103" fill="#86BB3F" /><path d="M732.891 483.176v16.8c-0.788 0.29-1.607 0.492-2.468 0.608v-16.8a11.602 11.602 0 0 0 2.468-0.608" fill="#86BB3F" /><path d="M730.425 483.785v16.8c-0.585 0.08-1.185 0.119-1.8 0.119-0.273 0-0.548-0.008-0.827-0.024-7.299-0.41-11.601-4.031-13.223-11.593-5.987-27.838-18.236-53.406-37.367-76.383-25.038-30.065-57.133-52.673-97.021-66.293-13.922-4.749-28.718-7.613-43.214-11.025-8.274-1.956-12.577-4.916-13.306-10.266a12.404 12.404 0 0 1-0.115-1.647v-16.8c0 0.531 0.039 1.08 0.115 1.647 0.729 5.35 5.03 8.31 13.306 10.266 14.496 3.413 29.292 6.276 43.214 11.025 39.888 13.619 71.981 36.227 97.021 66.293 19.131 22.977 31.38 48.544 37.367 76.383 1.622 7.561 5.924 11.182 13.223 11.592a13.437 13.437 0 0 0 2.627-0.094" fill="#86BB3F" /><path d="M539.775 295.55c10.342 2.331 20.807 4.338 31.017 7.036 33.265 8.817 62.891 23.404 88.978 43.281 27.72 21.126 49.188 46.284 64.009 75.625 7.741 15.311 13.135 31.241 16.713 47.653 0.19 0.873 0.595 1.711 0.907 2.565v2.331c-2.978 6.615-7.188 9.863-12.772 9.863-0.272 0-0.548-0.008-0.827-0.024-7.299-0.41-11.601-4.032-13.223-11.592-5.987-27.839-18.236-53.407-37.367-76.383-25.038-30.065-57.133-52.674-97.02-66.293-13.923-4.749-28.719-7.613-43.215-11.025-8.274-1.956-12.576-4.916-13.306-10.267-0.756-5.585 2.157-9.366 9.838-12.772 2.085 0.002 4.182 0.002 6.268 0.002z" fill="#C0DB7E" /><path d="M657.894 475.648v16.8c0 5.499-3.665 9.962-9.786 11.331-1.058 0.235-2.108 0.35-3.141 0.35-5.747 0-10.895-3.533-12.826-9.114-2.963-8.504-4.91-17.425-9.152-25.421-18.083-34.158-48.729-54.997-91.314-62.556-7.602-1.344-11.773-5.395-11.765-11.244v-16.8c-0.011 5.85 4.164 9.9 11.765 11.244 42.586 7.56 73.231 28.398 91.314 62.556 4.242 7.997 6.189 16.918 9.152 25.422 1.933 5.581 7.079 9.113 12.826 9.113 1.031 0 2.083-0.113 3.141-0.35 6.121-1.368 9.786-5.832 9.786-11.331z" fill="#86BB3F" /><path d="M657.894 475.648v16.8c0 0.251-0.007 0.5-0.021 0.748v-16.801c0.014-0.246 0.021-0.495 0.021-0.747M657.871 476.396v16.801c-0.149 2.438-1.034 4.643-2.545 6.433v-16.8c1.511-1.79 2.396-3.997 2.545-6.434M655.326 482.828v16.8a11.59 11.59 0 0 1-2.629 2.285v-16.8a11.545 11.545 0 0 0 2.629-2.285M652.697 485.112v16.8c-0.792 0.507-1.667 0.938-2.617 1.29v-16.8a13.39 13.39 0 0 0 2.617-1.29M650.08 486.403v16.8a15.571 15.571 0 0 1-3.189 0.796v-16.8a15.571 15.571 0 0 0 3.189-0.796" fill="#86BB3F" /><path d="M646.893 487.199v16.8c-0.647 0.087-1.291 0.131-1.926 0.131-5.747 0-10.895-3.533-12.826-9.114-2.963-8.504-4.91-17.425-9.152-25.421-18.083-34.158-48.729-54.997-91.314-62.556-7.602-1.344-11.773-5.395-11.765-11.244v-16.8c-0.011 5.85 4.164 9.9 11.765 11.244 42.586 7.56 73.231 28.398 91.314 62.556 4.242 7.997 6.189 16.918 9.152 25.422 1.933 5.581 7.079 9.113 12.826 9.113 0.635 0 1.277-0.041 1.926-0.131" fill="#86BB3F" /><path d="M532.921 367.654c0.88 0 1.781 0.072 2.701 0.22 40.29 6.521 72.497 24.234 96.557 52.937 13.084 15.606 21.278 33.067 25.403 52 1.472 6.759-2.328 12.571-9.476 14.169-1.058 0.235-2.108 0.35-3.141 0.35-5.747 0-10.895-3.533-12.826-9.113-2.963-8.504-4.911-17.425-9.152-25.422-18.083-34.158-48.729-54.996-91.314-62.556-7.602-1.344-11.773-5.395-11.765-11.244 0.008-6.45 5.723-11.341 13.013-11.341z" fill="#C0DB7E" /><path d="M612.837 568.174a26.412 26.412 0 0 0-0.391-0.009v-16.801l0.391 0.01V568.174z" fill="#6A9C4F" /><path d="M687.14 616.801v16.8c0.005-3.616-1.663-7.21-4.992-10.672-1.521-1.589-3.187-3.082-4.87-4.547-10.967-9.523-21.954-19.021-32.931-28.527-6.341-5.482-12.589-11.044-19.052-16.422a29.355 29.355 0 0 0-1.65-1.28c-3.646-2.615-7.403-3.94-11.196-3.988v-16.8c3.793 0.047 7.55 1.37 11.196 3.987 0.485 0.35 0.973 0.724 1.65 1.281 6.463 5.378 12.711 10.938 19.052 16.421 10.978 9.508 21.964 19.004 32.931 28.527 1.684 1.466 3.349 2.959 4.87 4.548 3.329 3.462 4.997 7.055 4.992 10.672" fill="#6A9C4F" /><path d="M601.028 571.848v-0.484-0.515-0.532-0.543-0.547-0.53-0.517-0.484-1.478-1.565-1.626-1.654-1.655-1.626-1.565-1.479c3.611-2.379 7.282-3.608 11.271-3.681 0.017 5.601 0.017 11.2 0.017 16.801-3.998 0.066-7.671 1.3-11.288 3.68z" fill="#6A9C4F" /><path d="M612.446 551.364v16.801c-0.839 0.008-1.664 0.068-2.478 0.18v-16.8a19.715 19.715 0 0 1 2.478-0.181" fill="#6A9C4F" /><path d="M609.97 551.545v16.8a19.41 19.41 0 0 0-4.107 1.028v-16.8a19.38 19.38 0 0 1 4.107-1.028M605.861 552.573v16.8c-1.527 0.56-3.022 1.315-4.511 2.267v-16.8c1.489-0.95 2.984-1.706 4.511-2.267" fill="#6A9C4F" /><path d="M601.352 554.84v16.8a30.1 30.1 0 0 0-1.051 0.704v-16.8c0.35-0.246 0.7-0.48 1.051-0.704" fill="#6A9C4F" /><path d="M594.844 576.792c-10.124 8.755-20.186 17.568-30.392 26.243v-16.801c10.206-8.676 20.268-17.487 30.392-26.243V576.792z" fill="#6A9C4F" /><path d="M600.301 555.544v16.8c-2.335 1.752-3.714 2.939-5.086 4.125-10.251 8.861-20.433 17.783-30.764 26.566v-16.801c10.331-8.781 20.512-17.705 30.764-26.565 1.372-1.186 2.751-2.373 5.086-4.125" fill="#6A9C4F" /><path d="M563.747 603.604v-0.024-0.024-0.026-0.027-0.026-0.025-0.027-0.023-1.938-2.057-2.131-2.173-2.173-2.132-2.055-1.94c0.195-0.154 0.426-0.343 0.705-0.566v16.8l-0.705 0.567z" fill="#6A9C4F" /><path d="M564.452 586.234v16.801c-1.154 0.935-1.491 1.19-1.835 1.437a25.19 25.19 0 0 1-1.149 0.776v-16.8c0.386-0.245 0.77-0.503 1.149-0.776 0.342-0.245 0.681-0.502 1.835-1.438" fill="#6A9C4F" /><path d="M369.87 341.215c5.415 0.028 10.225 2.149 15.388 6.356 17.954 15.501 34.717 30.063 51.48 44.625 1.259 1.091 2.5 2.226 3.648 3.413 3.568 3.683 5.418 7.32 5.421 10.906 0.003 3.588-1.842 7.125-5.663 10.614-10.359 9.47-21.205 18.558-32.014 27.654-6.492 5.453-9.519 9.703-9.52 14.815 0 3.277 1.244 6.91 3.613 11.442 11.542 22.068 28.638 40.759 47.386 58.427 21.219 19.989 44.725 37.643 71.72 51.607 6.007 3.107 12.285 5.839 18.536 8.591 3.367 1.481 6.642 2.248 9.806 2.296 4.995-0.102 9.01-1.49 12.802-4.185 0.488-0.35 0.826-0.606 1.164-0.874 11.146-9.448 21.326-18.371 31.579-27.231 1.37-1.188 2.752-2.374 4.204-3.481 4.771-3.378 8.713-4.775 12.619-4.822 4.2 0.047 7.957 1.371 11.604 3.987 0.486 0.35 0.974 0.725 1.454 1.118 6.66 5.54 12.909 11.103 19.25 16.583 10.977 9.507 21.963 19.005 32.93 28.529 1.685 1.465 3.349 2.958 4.871 4.547 3.33 3.462 4.998 7.054 4.994 10.672-0.005 3.399-1.482 6.821-4.442 10.183-1.531 1.745-3.286 3.346-5.059 4.925-9.364 8.327-18.911 16.524-28.136 24.976-10.389 9.516-22.873 13.425-37.056 13.426a86.187 86.187 0 0 1-6.438-0.253c-26.624-2.033-51.036-10.151-74.685-20.228-77.403-32.971-137.369-82.439-182.377-145.782-16.874-23.753-30.2-48.964-37.114-76.393-1.594-6.277-2.148-12.753-3.176-19.135-0.081-14.312 5.345-25.703 16.854-35.172 9.838-8.108 19.232-16.621 28.879-24.904 2.073-1.69 2.469-1.988 2.859-2.275 4.365-3.186 8.498-4.837 12.619-4.957z" fill="#D8E8AD" /><path d="M702.145 592.031c15.01 13.801 15.24 34.682 0.727 48.868-13.444 13.129-27.559 25.864-42.558 37.641-13.304 10.438-29.439 14.311-46.715 14.311-3.067 0-6.17-0.121-9.301-0.35-38.838-2.846-73.342-16.49-106.759-32.534-41.035-19.712-77.564-44.574-109.526-74.314-39.061-36.343-71.387-76.56-91.678-123.384-6.884-15.88-12.308-32.116-13.084-49.242-0.041-0.883-0.424-1.746-0.646-2.62v-5.429c0.666-4.592 1.038-9.238 2.076-13.76 2.592-11.287 8.407-21.256 17.709-29.495 12.308-10.913 24.191-22.28 37.447-32.264 9.983-7.516 20.383-11.296 30.693-11.296 10.552-0.002 21.009 3.96 30.833 11.935 20.686 16.776 40.513 34.402 59.836 52.359 14.364 13.346 14.233 33.801 0.312 47.522-10.321 10.187-21.711 19.563-32.791 29.156-2.097 1.815-2.64 2.994-1.208 5.5 11.107 19.477 26.793 36.02 43.757 51.73 17.397 16.115 36.53 30.511 58.05 42.393 6.129 3.387 12.688 6.188 19.533 9.497 8.018-7.021 15.604-14.143 23.789-20.716 6.634-5.317 13.355-10.921 21.14-14.72 6.014-2.934 12.62-4.368 19.176-4.368 9.814 0 19.521 3.216 26.979 9.439 21.162 17.661 42.057 35.616 62.209 54.141z m-19.446 34.952c2.958-3.36 4.438-6.783 4.439-10.182 0.005-3.618-1.663-7.211-4.992-10.673-1.521-1.589-3.187-3.081-4.87-4.547-10.967-9.524-21.954-19.021-32.931-28.528-6.341-5.481-12.589-11.044-19.052-16.421a29.518 29.518 0 0 0-1.651-1.281c-3.646-2.615-7.402-3.939-11.195-3.987-4.313 0.047-8.255 1.444-12.146 4.18-2.335 1.752-3.715 2.939-5.086 4.125-10.251 8.86-20.433 17.783-30.765 26.565-1.154 0.936-1.491 1.191-1.835 1.438-3.938 2.797-7.951 4.188-12.161 4.286-3.948-0.044-7.222-0.811-10.59-2.294-6.251-2.75-12.529-5.48-18.536-8.591-26.996-13.966-50.501-31.617-71.72-51.606-18.75-17.668-35.846-36.358-47.389-58.426-2.369-4.534-3.613-8.166-3.613-11.443 0-5.112 3.028-9.363 9.521-14.815 10.806-9.099 21.652-18.185 32.014-27.656 3.821-3.489 5.664-7.026 5.662-10.612-0.001-3.589-1.852-7.225-5.42-10.908-1.147-1.188-2.39-2.321-3.649-3.413-16.763-14.561-33.525-29.122-50.318-43.648-6.325-5.183-11.133-7.302-15.943-7.337-4.728 0.125-8.858 1.777-13.222 4.959-0.391 0.285-0.786 0.584-1.183 0.896-11.323 9.663-20.72 18.173-30.558 26.284-11.509 9.47-16.934 20.859-16.86 34.519 1.036 7.034 1.591 13.512 3.184 19.787 6.914 27.427 20.241 52.641 37.115 76.393C393.957 567.389 453.92 616.86 531.326 649.83c23.647 10.075 48.062 18.19 74.683 20.227 0.422 0.031 0.846 0.063 1.263 0.087 1.702 0.106 3.383 0.163 5.042 0.166 14.318 0 26.802-3.911 37.19-13.426 9.223-8.451 18.769-16.647 28.135-24.977 1.774-1.579 3.529-3.178 5.06-4.924" fill="#9DCB5A" /><path d="M713.581 616.746v16.8c0 8.578-3.572 17.177-10.711 24.153-13.444 13.129-27.56 25.864-42.558 37.642-13.304 10.438-29.439 14.311-46.715 14.311-3.067 0-6.17-0.121-9.301-0.351-38.838-2.845-73.342-16.489-106.759-32.533-41.035-19.713-77.564-44.574-109.526-74.315-39.061-36.342-71.387-76.56-91.678-123.383-6.884-15.881-12.308-32.117-13.084-49.242-0.041-0.883-0.424-1.746-0.646-2.619v-16.8c0.222 0.875 0.604 1.736 0.646 2.62 0.776 17.125 6.199 33.365 13.084 49.242 20.292 46.825 52.618 87.042 91.678 123.384 31.962 29.74 68.493 54.604 109.526 74.314 33.417 16.044 67.921 29.688 106.759 32.534 3.129 0.229 6.231 0.35 9.301 0.35 17.274 0 33.411-3.872 46.715-14.311 15-11.775 29.112-24.512 42.558-37.641 7.14-6.979 10.711-15.577 10.711-24.155z" fill="#6A9C4F" /><path d="M713.581 616.746v16.8c0 0.627-0.021 1.253-0.058 1.879l0.001-16.8c0.039-0.626 0.057-1.254 0.057-1.879" fill="#6A9C4F" /><path d="M713.523 618.625l0.001 16.8c-0.417 6.854-3.118 13.643-8.099 19.53v-16.8c4.982-5.888 7.682-12.676 8.098-19.53" fill="#6A9C4F" /><path d="M705.427 638.155v16.8a39.651 39.651 0 0 1-2.557 2.744c-13.444 13.129-27.56 25.865-42.558 37.642a61.03 61.03 0 0 1-4.859 3.446v-16.8a61.562 61.562 0 0 0 4.859-3.447c15-11.775 29.112-24.512 42.558-37.641a38.76 38.76 0 0 0 2.557-2.744M655.453 681.987v16.8a63.456 63.456 0 0 1-12.332 6.092v-16.8a63.57 63.57 0 0 0 12.332-6.092M643.121 688.078v16.8c-5.104 1.876-10.447 3.139-15.967 3.893v-16.8c5.52-0.752 10.864-2.017 15.967-3.893M627.154 691.972v16.801c-4.416 0.604-8.947 0.878-13.559 0.878-3.066 0-6.17-0.12-9.301-0.351-38.838-2.844-73.341-16.488-106.758-32.532-41.035-19.713-77.565-44.574-109.528-74.315-39.059-36.342-71.385-76.56-91.677-123.383-6.884-15.88-12.308-32.117-13.085-49.243-0.04-0.882-0.422-1.745-0.645-2.618v-16.8c0.223 0.875 0.605 1.736 0.645 2.618 0.778 17.127 6.2 33.365 13.085 49.245 20.292 46.824 52.618 87.041 91.677 123.383 31.963 29.74 68.495 54.604 109.528 74.314 33.417 16.044 67.92 29.688 106.758 32.532 3.13 0.229 6.231 0.351 9.301 0.351 4.612-0.002 9.143-0.278 13.559-0.88" fill="#6A9C4F" /></svg>