<svg width="63" height="57" viewBox="0 0 63 57" fill="none" xmlns="http://www.w3.org/2000/svg">
<g filter="url(#filter0_dd_646_180886)">
<path d="M33.4814 17C33.4814 12.5817 37.0632 9 41.4814 9H56.4814C58.6906 9 60.4814 10.7909 60.4814 13V41C60.4814 43.2091 58.6906 45 56.4814 45H42.4257C39.3955 45 36.6254 46.712 35.2703 49.4223L34.7578 50.4472C34.5884 50.786 34.2422 51 33.8634 51H33.4814V17Z" fill="url(#paint0_linear_646_180886)"/>
</g>
<g filter="url(#filter1_dddiiif_646_180886)">
<path d="M33.4814 18L31.8564 12.5624C30.3727 10.3368 27.8748 9 25.2 9H10.4814C8.27231 9 6.48145 10.7909 6.48145 13V41C6.48145 43.2091 8.27231 45 10.4814 45H24.5372C27.5674 45 30.3375 46.712 31.6926 49.4223L32.2051 50.4472C32.3744 50.786 32.7207 51 33.0995 51H33.4814V18Z" fill="white" fill-opacity="0.01" shape-rendering="crispEdges"/>
</g>
<g filter="url(#filter2_dd_646_180886)">
<path d="M12.4814 7C12.4814 4.79086 14.2723 3 16.4814 3H17.4814C26.318 3 33.4814 10.1634 33.4814 19V50.5C33.4814 50.7761 33.2576 51 32.9814 51C32.7053 51 32.4814 50.7761 32.4814 50.5V49C32.4814 43.4772 28.0043 39 22.4814 39H14.4814C13.3769 39 12.4814 38.1046 12.4814 37V7Z" fill="white"/>
</g>
<path d="M12.4814 7C12.4814 4.79086 14.2723 3 16.4814 3H17.4814C26.318 3 33.4814 10.1634 33.4814 19V50.5C33.4814 50.7761 33.2576 51 32.9814 51C32.7053 51 32.4814 50.7761 32.4814 50.5V49C32.4814 43.4772 28.0043 39 22.4814 39H14.4814C13.3769 39 12.4814 38.1046 12.4814 37V7Z" fill="url(#paint1_linear_646_180886)"/>
<rect x="39.4814" y="15" width="15" height="10" rx="2" fill="url(#paint2_radial_646_180886)"/>
<path d="M40.4814 32C39.9292 32 39.4814 32.4477 39.4814 33C39.4814 33.5523 39.9292 34 40.4814 34H53.4814C54.0337 34 54.4814 33.5523 54.4814 33C54.4814 32.4477 54.0337 32 53.4814 32H40.4814Z" fill="url(#paint3_linear_646_180886)"/>
<path d="M40.4814 28C39.9292 28 39.4814 28.4477 39.4814 29C39.4814 29.5523 39.9292 30 40.4814 30H53.4814C54.0337 30 54.4814 29.5523 54.4814 29C54.4814 28.4477 54.0337 28 53.4814 28H40.4814Z" fill="url(#paint4_linear_646_180886)"/>
<path d="M40.4814 36C39.9292 36 39.4814 36.4477 39.4814 37C39.4814 37.5523 39.9292 38 40.4814 38H49.4814C50.0337 38 50.4814 37.5523 50.4814 37C50.4814 36.4477 50.0337 36 49.4814 36H40.4814Z" fill="url(#paint5_linear_646_180886)"/>
<defs>
<filter id="filter0_dd_646_180886" x="27.4814" y="7" width="35" height="50" filterUnits="userSpaceOnUse" color-interpolation-filters="sRGB">
<feFlood flood-opacity="0" result="BackgroundImageFix"/>
<feColorMatrix in="SourceAlpha" type="matrix" values="0 0 0 0 0 0 0 0 0 0 0 0 0 0 0 0 0 0 127 0" result="hardAlpha"/>
<feOffset dx="-2" dy="2"/>
<feGaussianBlur stdDeviation="2"/>
<feColorMatrix type="matrix" values="0 0 0 0 0 0 0 0 0 0 0 0 0 0 0 0 0 0 0.24 0"/>
<feBlend mode="normal" in2="BackgroundImageFix" result="effect1_dropShadow_646_180886"/>
<feColorMatrix in="SourceAlpha" type="matrix" values="0 0 0 0 0 0 0 0 0 0 0 0 0 0 0 0 0 0 127 0" result="hardAlpha"/>
<feOffset dx="-1" dy="1"/>
<feGaussianBlur stdDeviation="1"/>
<feComposite in2="hardAlpha" operator="out"/>
<feColorMatrix type="matrix" values="0 0 0 0 0 0 0 0 0 0 0 0 0 0 0 0 0 0 0.12 0"/>
<feBlend mode="normal" in2="effect1_dropShadow_646_180886" result="effect2_dropShadow_646_180886"/>
<feBlend mode="normal" in="SourceGraphic" in2="effect2_dropShadow_646_180886" result="shape"/>
</filter>
<filter id="filter1_dddiiif_646_180886" x="0.481445" y="3" width="39" height="54" filterUnits="userSpaceOnUse" color-interpolation-filters="sRGB">
<feFlood flood-opacity="0" result="BackgroundImageFix"/>
<feColorMatrix in="SourceAlpha" type="matrix" values="0 0 0 0 0 0 0 0 0 0 0 0 0 0 0 0 0 0 127 0" result="hardAlpha"/>
<feOffset dx="-2" dy="2"/>
<feGaussianBlur stdDeviation="2"/>
<feComposite in2="hardAlpha" operator="out"/>
<feColorMatrix type="matrix" values="0 0 0 0 0 0 0 0 0 0 0 0 0 0 0 0 0 0 0.14 0"/>
<feBlend mode="normal" in2="BackgroundImageFix" result="effect1_dropShadow_646_180886"/>
<feColorMatrix in="SourceAlpha" type="matrix" values="0 0 0 0 0 0 0 0 0 0 0 0 0 0 0 0 0 0 127 0" result="hardAlpha"/>
<feOffset dx="-1" dy="1"/>
<feGaussianBlur stdDeviation="1"/>
<feComposite in2="hardAlpha" operator="out"/>
<feColorMatrix type="matrix" values="0 0 0 0 0 0 0 0 0 0 0 0 0 0 0 0 0 0 0.06 0"/>
<feBlend mode="normal" in2="effect1_dropShadow_646_180886" result="effect2_dropShadow_646_180886"/>
<feColorMatrix in="SourceAlpha" type="matrix" values="0 0 0 0 0 0 0 0 0 0 0 0 0 0 0 0 0 0 127 0" result="hardAlpha"/>
<feOffset dx="2" dy="-2"/>
<feGaussianBlur stdDeviation="2"/>
<feComposite in2="hardAlpha" operator="out"/>
<feColorMatrix type="matrix" values="0 0 0 0 1 0 0 0 0 1 0 0 0 0 1 0 0 0 0.25 0"/>
<feBlend mode="normal" in2="effect2_dropShadow_646_180886" result="effect3_dropShadow_646_180886"/>
<feBlend mode="normal" in="SourceGraphic" in2="effect3_dropShadow_646_180886" result="shape"/>
<feColorMatrix in="SourceAlpha" type="matrix" values="0 0 0 0 0 0 0 0 0 0 0 0 0 0 0 0 0 0 127 0" result="hardAlpha"/>
<feOffset dx="-2" dy="2"/>
<feGaussianBlur stdDeviation="3"/>
<feComposite in2="hardAlpha" operator="arithmetic" k2="-1" k3="1"/>
<feColorMatrix type="matrix" values="0 0 0 0 0 0 0 0 0 0 0 0 0 0 0 0 0 0 0.12 0"/>
<feBlend mode="normal" in2="shape" result="effect4_innerShadow_646_180886"/>
<feColorMatrix in="SourceAlpha" type="matrix" values="0 0 0 0 0 0 0 0 0 0 0 0 0 0 0 0 0 0 127 0" result="hardAlpha"/>
<feOffset dx="-2" dy="2"/>
<feGaussianBlur stdDeviation="2"/>
<feComposite in2="hardAlpha" operator="arithmetic" k2="-1" k3="1"/>
<feColorMatrix type="matrix" values="0 0 0 0 0 0 0 0 0 0 0 0 0 0 0 0 0 0 0.06 0"/>
<feBlend mode="normal" in2="effect4_innerShadow_646_180886" result="effect5_innerShadow_646_180886"/>
<feColorMatrix in="SourceAlpha" type="matrix" values="0 0 0 0 0 0 0 0 0 0 0 0 0 0 0 0 0 0 127 0" result="hardAlpha"/>
<feOffset dx="2" dy="-2"/>
<feGaussianBlur stdDeviation="4"/>
<feComposite in2="hardAlpha" operator="arithmetic" k2="-1" k3="1"/>
<feColorMatrix type="matrix" values="0 0 0 0 1 0 0 0 0 1 0 0 0 0 1 0 0 0 0.55 0"/>
<feBlend mode="normal" in2="effect5_innerShadow_646_180886" result="effect6_innerShadow_646_180886"/>
<feGaussianBlur stdDeviation="0.1875" result="effect7_foregroundBlur_646_180886"/>
</filter>
<filter id="filter2_dd_646_180886" x="6.48145" y="1" width="29" height="56" filterUnits="userSpaceOnUse" color-interpolation-filters="sRGB">
<feFlood flood-opacity="0" result="BackgroundImageFix"/>
<feColorMatrix in="SourceAlpha" type="matrix" values="0 0 0 0 0 0 0 0 0 0 0 0 0 0 0 0 0 0 127 0" result="hardAlpha"/>
<feOffset dx="-2" dy="2"/>
<feGaussianBlur stdDeviation="2"/>
<feColorMatrix type="matrix" values="0 0 0 0 0 0 0 0 0 0 0 0 0 0 0 0 0 0 0.12 0"/>
<feBlend mode="normal" in2="BackgroundImageFix" result="effect1_dropShadow_646_180886"/>
<feColorMatrix in="SourceAlpha" type="matrix" values="0 0 0 0 0 0 0 0 0 0 0 0 0 0 0 0 0 0 127 0" result="hardAlpha"/>
<feOffset dx="-1" dy="1"/>
<feGaussianBlur stdDeviation="1"/>
<feComposite in2="hardAlpha" operator="out"/>
<feColorMatrix type="matrix" values="0 0 0 0 0 0 0 0 0 0 0 0 0 0 0 0 0 0 0.08 0"/>
<feBlend mode="normal" in2="effect1_dropShadow_646_180886" result="effect2_dropShadow_646_180886"/>
<feBlend mode="normal" in="SourceGraphic" in2="effect2_dropShadow_646_180886" result="shape"/>
</filter>
<linearGradient id="paint0_linear_646_180886" x1="62.4814" y1="4.5" x2="20.9172" y2="32.0322" gradientUnits="userSpaceOnUse">
<stop offset="0.0528801" stop-color="#F7F6F4"/>
<stop offset="0.701911" stop-color="#E8E6DF"/>
</linearGradient>
<linearGradient id="paint1_linear_646_180886" x1="5.98145" y1="38.5" x2="41.7456" y2="36.0499" gradientUnits="userSpaceOnUse">
<stop stop-color="#3DD9EB" stop-opacity="0"/>
<stop offset="0.505404" stop-color="#3DD9EB"/>
<stop offset="0.948715" stop-color="#0078D4"/>
</linearGradient>
<radialGradient id="paint2_radial_646_180886" cx="0" cy="0" r="1" gradientUnits="userSpaceOnUse" gradientTransform="translate(39.9814 26.5) rotate(-38.8845) scale(19.9123 18.3806)">
<stop offset="0.0430062" stop-color="#FFC424" stop-opacity="0"/>
<stop offset="0.512307" stop-color="#FFC424"/>
<stop offset="1" stop-color="#E7512C"/>
</radialGradient>
<linearGradient id="paint3_linear_646_180886" x1="54.4814" y1="32" x2="53.9574" y2="35.9301" gradientUnits="userSpaceOnUse">
<stop offset="0.248777" stop-color="#C4BEB6"/>
<stop offset="1" stop-color="#8C8279"/>
</linearGradient>
<linearGradient id="paint4_linear_646_180886" x1="54.4814" y1="28" x2="53.9574" y2="31.9301" gradientUnits="userSpaceOnUse">
<stop offset="0.248777" stop-color="#C4BEB6"/>
<stop offset="1" stop-color="#8C8279"/>
</linearGradient>
<linearGradient id="paint5_linear_646_180886" x1="50.4814" y1="36" x2="49.7774" y2="39.872" gradientUnits="userSpaceOnUse">
<stop offset="0.248777" stop-color="#C4BEB6"/>
<stop offset="1" stop-color="#8C8279"/>
</linearGradient>
</defs>
</svg>
