<svg width="63" height="57" viewBox="0 0 63 57" fill="none" xmlns="http://www.w3.org/2000/svg">
<g filter="url(#filter0_dd_646_180782)">
<path d="M33.1484 17C33.1484 12.5817 36.7302 9 41.1484 9H56.1484C58.3576 9 60.1484 10.7909 60.1484 13V41C60.1484 43.2091 58.3576 45 56.1484 45H42.0927C39.0625 45 36.2924 46.712 34.9373 49.4223L34.4248 50.4472C34.2554 50.786 33.9092 51 33.5304 51H33.1484V17Z" fill="url(#paint0_linear_646_180782)"/>
</g>
<g filter="url(#filter1_dddiiif_646_180782)">
<path d="M33.1484 18L31.5234 12.5624C30.0396 10.3368 27.5418 9 24.867 9H10.1484C7.9393 9 6.14844 10.7909 6.14844 13V41C6.14844 43.2091 7.9393 45 10.1484 45H24.2042C27.2343 45 30.0044 46.712 31.3596 49.4223L31.872 50.4472C32.0414 50.786 32.3877 51 32.7665 51H33.1484V18Z" fill="white" fill-opacity="0.01" shape-rendering="crispEdges"/>
</g>
<g filter="url(#filter2_dd_646_180782)">
<path d="M12.1484 7C12.1484 4.79086 13.9393 3 16.1484 3H17.1484C25.985 3 33.1484 10.1634 33.1484 19V50.5C33.1484 50.7761 32.9246 51 32.6484 51C32.3723 51 32.1484 50.7761 32.1484 50.5V49C32.1484 43.4772 27.6713 39 22.1484 39H14.1484C13.0439 39 12.1484 38.1046 12.1484 37V7Z" fill="white"/>
</g>
<path d="M12.1484 7C12.1484 4.79086 13.9393 3 16.1484 3H17.1484C25.985 3 33.1484 10.1634 33.1484 19V50.5C33.1484 50.7761 32.9246 51 32.6484 51C32.3723 51 32.1484 50.7761 32.1484 50.5V49C32.1484 43.4772 27.6713 39 22.1484 39H14.1484C13.0439 39 12.1484 38.1046 12.1484 37V7Z" fill="url(#paint1_linear_646_180782)"/>
<path d="M40.1484 37C39.5962 37 39.1484 37.4477 39.1484 38C39.1484 38.5523 39.5962 39 40.1484 39H53.1484C53.7007 39 54.1484 38.5523 54.1484 38C54.1484 37.4477 53.7007 37 53.1484 37H40.1484Z" fill="url(#paint2_linear_646_180782)"/>
<g filter="url(#filter3_dd_646_180782)">
<path fill-rule="evenodd" clip-rule="evenodd" d="M41.3344 29.9977L42.6572 29.4173C42.7936 29.3572 42.9411 29.3262 43.0903 29.3263H43.094C43.3633 29.3266 43.623 29.426 43.8238 29.6054C44.0245 29.7849 44.1522 30.0319 44.1826 30.2994L44.3412 31.7339C44.3619 31.9201 44.4396 32.0955 44.5636 32.2359C44.6877 32.3764 44.852 32.4752 45.0343 32.5189C45.728 32.6844 46.4387 32.768 47.1519 32.768C47.8636 32.7673 48.5727 32.6832 49.2648 32.5175C49.4467 32.4737 49.6108 32.3748 49.7345 32.2344C49.8583 32.0941 49.9358 31.9189 49.9564 31.7329L50.115 30.2919C50.1418 30.0342 50.2597 29.7946 50.4475 29.6161C50.6353 29.4376 50.8806 29.332 51.1393 29.3183C51.3114 29.3109 51.4828 29.343 51.6405 29.4121L52.9576 29.9898C53.0721 30.0412 53.1961 30.0682 53.3217 30.069C53.4472 30.0698 53.5716 30.0444 53.6868 29.9944C53.8024 29.9451 53.9063 29.8718 53.9918 29.7795C54.9602 28.7357 55.6833 27.4886 56.108 26.1294C56.1636 25.9491 56.1618 25.756 56.103 25.5768C56.0442 25.3975 55.9311 25.2409 55.7795 25.1286L54.6093 24.2652C54.4699 24.164 54.3564 24.0312 54.2782 23.8777C54.2 23.7242 54.1592 23.5544 54.1592 23.3822C54.1592 23.2099 54.2 23.0401 54.2782 22.8866C54.3564 22.7331 54.4699 22.6003 54.6093 22.4991L55.7758 21.6376C55.9279 21.5251 56.0412 21.3681 56.1 21.1884C56.1589 21.0086 56.1603 20.815 56.1042 20.6344C55.6794 19.2751 54.9555 18.0281 53.9857 16.9852C53.8572 16.8479 53.6892 16.7538 53.505 16.716C53.3208 16.6782 53.1293 16.6985 52.9571 16.7741L51.6405 17.354C51.5039 17.4156 51.3558 17.4476 51.206 17.4479C50.9356 17.4475 50.6749 17.3472 50.474 17.1664C50.273 16.9856 50.1458 16.7369 50.1169 16.4681L49.9574 15.0323C49.937 14.8438 49.8581 14.6665 49.7319 14.5251C49.6057 14.3836 49.4385 14.2852 49.2535 14.2435C48.5651 14.0898 47.8624 14.0082 47.157 14C46.4467 14.0082 45.7391 14.09 45.0455 14.244C44.8608 14.2854 44.6937 14.3835 44.5675 14.5246C44.4413 14.6657 44.3623 14.8427 44.3417 15.0309L44.1817 16.4677C44.1517 16.7367 44.0236 16.9853 43.8218 17.1659C43.6157 17.3409 43.3559 17.4403 43.0856 17.4474C42.9365 17.4473 42.789 17.4163 42.6525 17.3564L41.3387 16.7764C41.1659 16.7001 40.9736 16.6795 40.7886 16.7176C40.6036 16.7556 40.4351 16.8503 40.3064 16.9885C39.3378 18.0316 38.6146 19.2781 38.1897 20.6367C38.1336 20.8173 38.1351 21.0108 38.1939 21.1905C38.2528 21.3702 38.3661 21.5271 38.5182 21.6394L39.686 22.5009C39.8243 22.603 39.9367 22.7361 40.0143 22.8894C40.0919 23.0428 40.1324 23.2122 40.1328 23.384C40.1329 23.5562 40.0926 23.7259 40.015 23.8796C39.9374 24.0332 39.8247 24.1665 39.686 24.2685L38.5177 25.1314C38.3658 25.2437 38.2526 25.4005 38.1938 25.58C38.1349 25.7594 38.1333 25.9528 38.1892 26.1332C38.6132 27.4931 39.3363 28.7408 40.3054 29.7847C40.3896 29.8758 40.4919 29.9484 40.6057 29.9977C40.7206 30.0482 40.8446 30.0743 40.9701 30.0743C41.0955 30.0743 41.2196 30.0482 41.3344 29.9977Z" fill="url(#paint3_linear_646_180782)"/>
</g>
<g filter="url(#filter4_dd_646_180782)">
<circle cx="47.1484" cy="23.384" r="3" fill="url(#paint4_linear_646_180782)"/>
</g>
<defs>
<filter id="filter0_dd_646_180782" x="27.1484" y="7" width="35" height="50" filterUnits="userSpaceOnUse" color-interpolation-filters="sRGB">
<feFlood flood-opacity="0" result="BackgroundImageFix"/>
<feColorMatrix in="SourceAlpha" type="matrix" values="0 0 0 0 0 0 0 0 0 0 0 0 0 0 0 0 0 0 127 0" result="hardAlpha"/>
<feOffset dx="-2" dy="2"/>
<feGaussianBlur stdDeviation="2"/>
<feColorMatrix type="matrix" values="0 0 0 0 0 0 0 0 0 0 0 0 0 0 0 0 0 0 0.24 0"/>
<feBlend mode="normal" in2="BackgroundImageFix" result="effect1_dropShadow_646_180782"/>
<feColorMatrix in="SourceAlpha" type="matrix" values="0 0 0 0 0 0 0 0 0 0 0 0 0 0 0 0 0 0 127 0" result="hardAlpha"/>
<feOffset dx="-1" dy="1"/>
<feGaussianBlur stdDeviation="1"/>
<feComposite in2="hardAlpha" operator="out"/>
<feColorMatrix type="matrix" values="0 0 0 0 0 0 0 0 0 0 0 0 0 0 0 0 0 0 0.12 0"/>
<feBlend mode="normal" in2="effect1_dropShadow_646_180782" result="effect2_dropShadow_646_180782"/>
<feBlend mode="normal" in="SourceGraphic" in2="effect2_dropShadow_646_180782" result="shape"/>
</filter>
<filter id="filter1_dddiiif_646_180782" x="0.148438" y="3" width="39" height="54" filterUnits="userSpaceOnUse" color-interpolation-filters="sRGB">
<feFlood flood-opacity="0" result="BackgroundImageFix"/>
<feColorMatrix in="SourceAlpha" type="matrix" values="0 0 0 0 0 0 0 0 0 0 0 0 0 0 0 0 0 0 127 0" result="hardAlpha"/>
<feOffset dx="-2" dy="2"/>
<feGaussianBlur stdDeviation="2"/>
<feComposite in2="hardAlpha" operator="out"/>
<feColorMatrix type="matrix" values="0 0 0 0 0 0 0 0 0 0 0 0 0 0 0 0 0 0 0.14 0"/>
<feBlend mode="normal" in2="BackgroundImageFix" result="effect1_dropShadow_646_180782"/>
<feColorMatrix in="SourceAlpha" type="matrix" values="0 0 0 0 0 0 0 0 0 0 0 0 0 0 0 0 0 0 127 0" result="hardAlpha"/>
<feOffset dx="-1" dy="1"/>
<feGaussianBlur stdDeviation="1"/>
<feComposite in2="hardAlpha" operator="out"/>
<feColorMatrix type="matrix" values="0 0 0 0 0 0 0 0 0 0 0 0 0 0 0 0 0 0 0.06 0"/>
<feBlend mode="normal" in2="effect1_dropShadow_646_180782" result="effect2_dropShadow_646_180782"/>
<feColorMatrix in="SourceAlpha" type="matrix" values="0 0 0 0 0 0 0 0 0 0 0 0 0 0 0 0 0 0 127 0" result="hardAlpha"/>
<feOffset dx="2" dy="-2"/>
<feGaussianBlur stdDeviation="2"/>
<feComposite in2="hardAlpha" operator="out"/>
<feColorMatrix type="matrix" values="0 0 0 0 1 0 0 0 0 1 0 0 0 0 1 0 0 0 0.25 0"/>
<feBlend mode="normal" in2="effect2_dropShadow_646_180782" result="effect3_dropShadow_646_180782"/>
<feBlend mode="normal" in="SourceGraphic" in2="effect3_dropShadow_646_180782" result="shape"/>
<feColorMatrix in="SourceAlpha" type="matrix" values="0 0 0 0 0 0 0 0 0 0 0 0 0 0 0 0 0 0 127 0" result="hardAlpha"/>
<feOffset dx="-2" dy="2"/>
<feGaussianBlur stdDeviation="3"/>
<feComposite in2="hardAlpha" operator="arithmetic" k2="-1" k3="1"/>
<feColorMatrix type="matrix" values="0 0 0 0 0 0 0 0 0 0 0 0 0 0 0 0 0 0 0.12 0"/>
<feBlend mode="normal" in2="shape" result="effect4_innerShadow_646_180782"/>
<feColorMatrix in="SourceAlpha" type="matrix" values="0 0 0 0 0 0 0 0 0 0 0 0 0 0 0 0 0 0 127 0" result="hardAlpha"/>
<feOffset dx="-2" dy="2"/>
<feGaussianBlur stdDeviation="2"/>
<feComposite in2="hardAlpha" operator="arithmetic" k2="-1" k3="1"/>
<feColorMatrix type="matrix" values="0 0 0 0 0 0 0 0 0 0 0 0 0 0 0 0 0 0 0.06 0"/>
<feBlend mode="normal" in2="effect4_innerShadow_646_180782" result="effect5_innerShadow_646_180782"/>
<feColorMatrix in="SourceAlpha" type="matrix" values="0 0 0 0 0 0 0 0 0 0 0 0 0 0 0 0 0 0 127 0" result="hardAlpha"/>
<feOffset dx="2" dy="-2"/>
<feGaussianBlur stdDeviation="4"/>
<feComposite in2="hardAlpha" operator="arithmetic" k2="-1" k3="1"/>
<feColorMatrix type="matrix" values="0 0 0 0 1 0 0 0 0 1 0 0 0 0 1 0 0 0 0.55 0"/>
<feBlend mode="normal" in2="effect5_innerShadow_646_180782" result="effect6_innerShadow_646_180782"/>
<feGaussianBlur stdDeviation="0.1875" result="effect7_foregroundBlur_646_180782"/>
</filter>
<filter id="filter2_dd_646_180782" x="6.14844" y="1" width="29" height="56" filterUnits="userSpaceOnUse" color-interpolation-filters="sRGB">
<feFlood flood-opacity="0" result="BackgroundImageFix"/>
<feColorMatrix in="SourceAlpha" type="matrix" values="0 0 0 0 0 0 0 0 0 0 0 0 0 0 0 0 0 0 127 0" result="hardAlpha"/>
<feOffset dx="-2" dy="2"/>
<feGaussianBlur stdDeviation="2"/>
<feColorMatrix type="matrix" values="0 0 0 0 0 0 0 0 0 0 0 0 0 0 0 0 0 0 0.12 0"/>
<feBlend mode="normal" in2="BackgroundImageFix" result="effect1_dropShadow_646_180782"/>
<feColorMatrix in="SourceAlpha" type="matrix" values="0 0 0 0 0 0 0 0 0 0 0 0 0 0 0 0 0 0 127 0" result="hardAlpha"/>
<feOffset dx="-1" dy="1"/>
<feGaussianBlur stdDeviation="1"/>
<feComposite in2="hardAlpha" operator="out"/>
<feColorMatrix type="matrix" values="0 0 0 0 0 0 0 0 0 0 0 0 0 0 0 0 0 0 0.08 0"/>
<feBlend mode="normal" in2="effect1_dropShadow_646_180782" result="effect2_dropShadow_646_180782"/>
<feBlend mode="normal" in="SourceGraphic" in2="effect2_dropShadow_646_180782" result="shape"/>
</filter>
<filter id="filter3_dd_646_180782" x="32.1484" y="12" width="26" height="26.7681" filterUnits="userSpaceOnUse" color-interpolation-filters="sRGB">
<feFlood flood-opacity="0" result="BackgroundImageFix"/>
<feColorMatrix in="SourceAlpha" type="matrix" values="0 0 0 0 0 0 0 0 0 0 0 0 0 0 0 0 0 0 127 0" result="hardAlpha"/>
<feOffset dx="-2" dy="2"/>
<feGaussianBlur stdDeviation="2"/>
<feColorMatrix type="matrix" values="0 0 0 0 0 0 0 0 0 0 0 0 0 0 0 0 0 0 0.12 0"/>
<feBlend mode="normal" in2="BackgroundImageFix" result="effect1_dropShadow_646_180782"/>
<feColorMatrix in="SourceAlpha" type="matrix" values="0 0 0 0 0 0 0 0 0 0 0 0 0 0 0 0 0 0 127 0" result="hardAlpha"/>
<feOffset dx="-1" dy="1"/>
<feGaussianBlur stdDeviation="1"/>
<feComposite in2="hardAlpha" operator="out"/>
<feColorMatrix type="matrix" values="0 0 0 0 0 0 0 0 0 0 0 0 0 0 0 0 0 0 0.08 0"/>
<feBlend mode="normal" in2="effect1_dropShadow_646_180782" result="effect2_dropShadow_646_180782"/>
<feBlend mode="normal" in="SourceGraphic" in2="effect2_dropShadow_646_180782" result="shape"/>
</filter>
<filter id="filter4_dd_646_180782" x="35.1484" y="19.384" width="18" height="18" filterUnits="userSpaceOnUse" color-interpolation-filters="sRGB">
<feFlood flood-opacity="0" result="BackgroundImageFix"/>
<feColorMatrix in="SourceAlpha" type="matrix" values="0 0 0 0 0 0 0 0 0 0 0 0 0 0 0 0 0 0 127 0" result="hardAlpha"/>
<feOffset dx="-3" dy="5"/>
<feGaussianBlur stdDeviation="3"/>
<feColorMatrix type="matrix" values="0 0 0 0 0 0 0 0 0 0 0 0 0 0 0 0 0 0 0.12 0"/>
<feBlend mode="normal" in2="BackgroundImageFix" result="effect1_dropShadow_646_180782"/>
<feColorMatrix in="SourceAlpha" type="matrix" values="0 0 0 0 0 0 0 0 0 0 0 0 0 0 0 0 0 0 127 0" result="hardAlpha"/>
<feOffset dx="-1" dy="2"/>
<feGaussianBlur stdDeviation="1.5"/>
<feComposite in2="hardAlpha" operator="out"/>
<feColorMatrix type="matrix" values="0 0 0 0 0 0 0 0 0 0 0 0 0 0 0 0 0 0 0.08 0"/>
<feBlend mode="normal" in2="effect1_dropShadow_646_180782" result="effect2_dropShadow_646_180782"/>
<feBlend mode="normal" in="SourceGraphic" in2="effect2_dropShadow_646_180782" result="shape"/>
</filter>
<linearGradient id="paint0_linear_646_180782" x1="62.1484" y1="4.5" x2="20.5842" y2="32.0322" gradientUnits="userSpaceOnUse">
<stop offset="0.0528801" stop-color="#F7F6F4"/>
<stop offset="0.701911" stop-color="#E8E6DF"/>
</linearGradient>
<linearGradient id="paint1_linear_646_180782" x1="5.64844" y1="38.5" x2="41.4126" y2="36.0499" gradientUnits="userSpaceOnUse">
<stop stop-color="#3DD9EB" stop-opacity="0"/>
<stop offset="0.505404" stop-color="#3DD9EB"/>
<stop offset="0.948715" stop-color="#0078D4"/>
</linearGradient>
<linearGradient id="paint2_linear_646_180782" x1="54.1484" y1="37" x2="53.6244" y2="40.9301" gradientUnits="userSpaceOnUse">
<stop offset="0.175465" stop-color="#FFC424"/>
<stop offset="1" stop-color="#E7512C"/>
</linearGradient>
<linearGradient id="paint3_linear_646_180782" x1="56.1484" y1="14" x2="37.3968" y2="31.9843" gradientUnits="userSpaceOnUse">
<stop offset="0.248777" stop-color="#C4BEB6"/>
<stop offset="1" stop-color="#8C8279"/>
</linearGradient>
<linearGradient id="paint4_linear_646_180782" x1="50.1484" y1="20.384" x2="44.1484" y2="26.384" gradientUnits="userSpaceOnUse">
<stop offset="0.108965" stop-color="#F7F6F4"/>
<stop offset="1" stop-color="#E8E6DF"/>
</linearGradient>
</defs>
</svg>
