<svg width="200" height="200" viewBox="0 0 200 200" fill="none" xmlns="http://www.w3.org/2000/svg">
<g clip-path="url(#clip0_646_178043)">
<circle cx="100" cy="100" r="100" fill="url(#paint0_linear_646_178043)"/>
<g filter="url(#filter0_ii_646_178043)">
<path d="M82.0004 135C80.7534 135 79.5064 134.537 78.5374 133.607L53.5374 109.607C51.5454 107.694 51.4804 104.529 53.3934 102.537C55.3044 100.546 58.4694 100.479 60.4624 102.393L81.9284 123L139.465 65.464C141.416 63.512 144.584 63.512 146.535 65.464C148.488 67.417 148.488 70.583 146.535 72.535L85.5354 133.535C84.5604 134.51 83.2804 135 82.0004 135Z" fill="url(#paint1_linear_646_178043)"/>
</g>
</g>
<defs>
<filter id="filter0_ii_646_178043" x="52" y="64" width="96" height="75" filterUnits="userSpaceOnUse" color-interpolation-filters="sRGB">
<feFlood flood-opacity="0" result="BackgroundImageFix"/>
<feBlend mode="normal" in="SourceGraphic" in2="BackgroundImageFix" result="shape"/>
<feColorMatrix in="SourceAlpha" type="matrix" values="0 0 0 0 0 0 0 0 0 0 0 0 0 0 0 0 0 0 127 0" result="hardAlpha"/>
<feOffset dy="4"/>
<feGaussianBlur stdDeviation="9.5"/>
<feComposite in2="hardAlpha" operator="arithmetic" k2="-1" k3="1"/>
<feColorMatrix type="matrix" values="0 0 0 0 0.0666667 0 0 0 0 0.0627451 0 0 0 0 0.0588235 0 0 0 0.14 0"/>
<feBlend mode="normal" in2="shape" result="effect1_innerShadow_646_178043"/>
<feColorMatrix in="SourceAlpha" type="matrix" values="0 0 0 0 0 0 0 0 0 0 0 0 0 0 0 0 0 0 127 0" result="hardAlpha"/>
<feOffset dy="4"/>
<feGaussianBlur stdDeviation="3.5"/>
<feComposite in2="hardAlpha" operator="arithmetic" k2="-1" k3="1"/>
<feColorMatrix type="matrix" values="0 0 0 0 0.0666667 0 0 0 0 0.0627451 0 0 0 0 0.0588235 0 0 0 0.14 0"/>
<feBlend mode="normal" in2="effect1_innerShadow_646_178043" result="effect2_innerShadow_646_178043"/>
</filter>
<linearGradient id="paint0_linear_646_178043" x1="63.241" y1="6.47349" x2="144.074" y2="200.112" gradientUnits="userSpaceOnUse">
<stop stop-color="#E0E0E0" stop-opacity="0.2"/>
<stop offset="1" stop-color="#6B6B6B" stop-opacity="0.2"/>
</linearGradient>
<linearGradient id="paint1_linear_646_178043" x1="74.5" y1="135" x2="122.5" y2="64" gradientUnits="userSpaceOnUse">
<stop stop-color="#D1D1D1"/>
<stop offset="1" stop-color="#B3B3B3"/>
</linearGradient>
<clipPath id="clip0_646_178043">
<rect width="200" height="200" fill="white"/>
</clipPath>
</defs>
</svg>
