<svg width="60" height="60" viewBox="0 0 60 60" fill="none" xmlns="http://www.w3.org/2000/svg">
<path d="M20.6667 15.6667V20.6667H35.3333V15.6667C35.3333 14.378 34.2887 13.3333 33 13.3333H23C21.7113 13.3333 20.6667 14.378 20.6667 15.6667ZM17.3333 20.6667V15.6667C17.3333 12.5371 19.8704 10 23 10H33C36.1296 10 38.6667 12.5371 38.6667 15.6667V20.6667H43.6667C48.269 20.6667 52 24.3976 52 29V33.6667C52 36.4281 49.7614 38.6667 47 38.6667H33.3333V38C33.3333 36.5272 32.1394 35.3333 30.6667 35.3333H25.3333C23.8606 35.3333 22.6667 36.5272 22.6667 38V38.6667H9C6.23858 38.6667 4 36.4281 4 33.6667V29C4 24.3976 7.73096 20.6667 12.3333 20.6667H17.3333ZM22.6667 42H9C7.12399 42 5.39277 41.3801 4 40.3339V49.6667C4 54.269 7.73096 58 12.3333 58H43.6667C48.269 58 52 54.269 52 49.6667V40.3339C50.6072 41.3801 48.876 42 47 42H33.3333V43.3333C33.3333 44.8061 32.1394 46 30.6667 46H25.3333C23.8606 46 22.6667 44.8061 22.6667 43.3333V42Z" fill="#242424"/>
</svg>
