<svg width="32" height="32" viewBox="0 0 32 32" fill="none" xmlns="http://www.w3.org/2000/svg">
<path fill-rule="evenodd" clip-rule="evenodd" d="M8.68122 11.9245L27.3667 9.26346H27.3734C27.8056 9.20269 28.1567 8.88536 28.2647 8.4735L29.9594 3.3624C29.9864 3.26787 29.9999 3.17335 29.9999 3.07207C29.9999 2.47791 29.5138 1.99854 28.9196 1.99854C28.896 1.99854 28.874 2.00022 28.8521 2.00191C28.8301 2.0036 28.8082 2.00529 28.7846 2.00529L10.8046 4.51074C8.92086 4.80782 7.39496 6.19869 6.90208 8.01492L5.47412 13.2749C5.72449 12.4403 6.1959 12.3584 7.92456 12.0579C8.15386 12.018 8.40527 11.9743 8.68122 11.9245ZM8.31789 14.1106C6.0573 14.5798 5.17952 15.3084 4.68511 16.4136C4.6005 16.6059 4.52357 16.8136 4.45434 17.0289L3.18896 21.6471C3.82099 21.2932 4.59171 21.0058 5.52802 20.8535L5.54156 20.8513L18.273 18.9835C19.3815 18.8014 19.5895 18.0247 19.8016 17.2323C19.7854 17.2914 19.8175 17.1732 19.8016 17.2323L21.1867 12.1963L8.31789 14.1106ZM5.66737 22.8567C3.21602 23.2557 2.41178 24.877 2.21876 25.3724C2.07721 25.7456 2 26.1509 2 26.5756C2 28.3256 3.31897 29.7669 5.01754 29.9534C5.49366 30.0242 6.03411 30.0178 6.64534 29.9277L9.43126 29.5417C10.1326 29.4452 10.7052 28.9369 10.8918 28.2549L12.6418 21.8337L5.66737 22.8567Z" fill="#292929"/>
</svg>
